<svg id="account" xmlns="http://www.w3.org/2000/svg" width="54" height="54" viewBox="0 0 54 54">
  <defs>
    <style>
      .cls-1 {
        fill: #3c3f54;
      }

      .cls-2 {
        fill: #fff;
        fill-rule: evenodd;
      }
    </style>
  </defs>
  <rect id="Rounded_Rectangle_3" data-name="Rounded Rectangle 3" class="cls-1" width="54" height="54" rx="20" ry="20"/>
  <path class="cls-2" d="M1841.7,57.76c-3.51-1.074-5.33-3.357-5.41-6.793A6.725,6.725,0,0,1,1843.16,44a6.811,6.811,0,0,1,6.47,7.344c-0.21,3.116-2,5.23-5.67,6.471a11.1,11.1,0,0,1,1.42.214,33.909,33.909,0,0,1,5.45,1.731,6.3,6.3,0,0,1,3.61,5.963,2.744,2.744,0,0,1-2.46,3.011,15.206,15.206,0,0,1-2.93.244q-6.12.038-12.24,0a16.27,16.27,0,0,1-2.71-.185,2.819,2.819,0,0,1-2.66-3.171c0.03-3.3,2.21-5.932,5.91-6.991C1838.74,58.235,1840.19,58.055,1841.7,57.76Zm-3.01,2.208c-0.49.128-.99,0.221-1.47,0.388a5.647,5.647,0,0,0-4.14,5.376,1.335,1.335,0,0,0,1.3,1.509,23.4,23.4,0,0,0,2.61.163c3.89,0.013,7.79,0,11.68-.011a17.6,17.6,0,0,0,2.5-.127c1.45-.216,1.76-0.667,1.6-2.09-0.28-2.453-1.85-3.9-4.09-4.75A17.327,17.327,0,0,0,1838.69,59.968Zm9.09-10.588a5.017,5.017,0,0,0-6.08-3.64,5.433,5.433,0,0,0-3.61,6.686,5.051,5.051,0,0,0,6.11,3.62A5.34,5.34,0,0,0,1847.78,49.38Z" transform="translate(-1816 -30)"/>
</svg>
