<svg xmlns="http://www.w3.org/2000/svg" width="184" height="144" viewBox="0 0 184 144">
  <defs>
    <style>
      .cls-1 {
        fill: #54566a;
        fill-rule: evenodd;
      }
    </style>
  </defs>
  <path id="background_texture" class="cls-1" d="M1767,162a2,2,0,1,1-2,2A2,2,0,0,1,1767,162Zm-20,0a2,2,0,1,1-2,2A2,2,0,0,1,1747,162Zm-20,0a2,2,0,1,1-2,2A2,2,0,0,1,1727,162Zm-20,0a2,2,0,1,1-2,2A2,2,0,0,1,1707,162Zm-20,0a2,2,0,1,1-2,2A2,2,0,0,1,1687,162Zm-20,0a2,2,0,1,1-2,2A2,2,0,0,1,1667,162Zm-20,0a2,2,0,1,1-2,2A2,2,0,0,1,1647,162Zm-20,0a2,2,0,1,1-2,2A2,2,0,0,1,1627,162Zm-20,0a2,2,0,1,1-2,2A2,2,0,0,1,1607,162Zm-20,0a2,2,0,1,1-2,2A2,2,0,0,1,1587,162Zm180-20a2,2,0,1,1-2,2A2,2,0,0,1,1767,142Zm-20,0a2,2,0,1,1-2,2A2,2,0,0,1,1747,142Zm-20,0a2,2,0,1,1-2,2A2,2,0,0,1,1727,142Zm-20,0a2,2,0,1,1-2,2A2,2,0,0,1,1707,142Zm-20,0a2,2,0,1,1-2,2A2,2,0,0,1,1687,142Zm-20,0a2,2,0,1,1-2,2A2,2,0,0,1,1667,142Zm-20,0a2,2,0,1,1-2,2A2,2,0,0,1,1647,142Zm-20,0a2,2,0,1,1-2,2A2,2,0,0,1,1627,142Zm-20,0a2,2,0,1,1-2,2A2,2,0,0,1,1607,142Zm-20,0a2,2,0,1,1-2,2A2,2,0,0,1,1587,142Zm180-20a2,2,0,1,1-2,2A2,2,0,0,1,1767,122Zm-20,0a2,2,0,1,1-2,2A2,2,0,0,1,1747,122Zm-20,0a2,2,0,1,1-2,2A2,2,0,0,1,1727,122Zm-20,0a2,2,0,1,1-2,2A2,2,0,0,1,1707,122Zm-20,0a2,2,0,1,1-2,2A2,2,0,0,1,1687,122Zm-20,0a2,2,0,1,1-2,2A2,2,0,0,1,1667,122Zm-20,0a2,2,0,1,1-2,2A2,2,0,0,1,1647,122Zm-20,0a2,2,0,1,1-2,2A2,2,0,0,1,1627,122Zm-20,0a2,2,0,1,1-2,2A2,2,0,0,1,1607,122Zm-20,0a2,2,0,1,1-2,2A2,2,0,0,1,1587,122Zm180-20a2,2,0,1,1-2,2A2,2,0,0,1,1767,102Zm-20,0a2,2,0,1,1-2,2A2,2,0,0,1,1747,102Zm-20,0a2,2,0,1,1-2,2A2,2,0,0,1,1727,102Zm-20,0a2,2,0,1,1-2,2A2,2,0,0,1,1707,102Zm-20,0a2,2,0,1,1-2,2A2,2,0,0,1,1687,102Zm-20,0a2,2,0,1,1-2,2A2,2,0,0,1,1667,102Zm-20,0a2,2,0,1,1-2,2A2,2,0,0,1,1647,102Zm-20,0a2,2,0,1,1-2,2A2,2,0,0,1,1627,102Zm-20,0a2,2,0,1,1-2,2A2,2,0,0,1,1607,102Zm-20,0a2,2,0,1,1-2,2A2,2,0,0,1,1587,102Zm180-20a2,2,0,1,1-2,2A2,2,0,0,1,1767,82Zm-20,0a2,2,0,1,1-2,2A2,2,0,0,1,1747,82Zm-20,0a2,2,0,1,1-2,2A2,2,0,0,1,1727,82Zm-20,0a2,2,0,1,1-2,2A2,2,0,0,1,1707,82Zm-20,0a2,2,0,1,1-2,2A2,2,0,0,1,1687,82Zm-20,0a2,2,0,1,1-2,2A2,2,0,0,1,1667,82Zm-20,0a2,2,0,1,1-2,2A2,2,0,0,1,1647,82Zm-20,0a2,2,0,1,1-2,2A2,2,0,0,1,1627,82Zm-20,0a2,2,0,1,1-2,2A2,2,0,0,1,1607,82Zm-20,0a2,2,0,1,1-2,2A2,2,0,0,1,1587,82Zm180-20a2,2,0,1,1-2,2A2,2,0,0,1,1767,62Zm-20,0a2,2,0,1,1-2,2A2,2,0,0,1,1747,62Zm-20,0a2,2,0,1,1-2,2A2,2,0,0,1,1727,62Zm-20,0a2,2,0,1,1-2,2A2,2,0,0,1,1707,62Zm-20,0a2,2,0,1,1-2,2A2,2,0,0,1,1687,62Zm-20,0a2,2,0,1,1-2,2A2,2,0,0,1,1667,62Zm-20,0a2,2,0,1,1-2,2A2,2,0,0,1,1647,62Zm-20,0a2,2,0,1,1-2,2A2,2,0,0,1,1627,62Zm-20,0a2,2,0,1,1-2,2A2,2,0,0,1,1607,62Zm-20,0a2,2,0,1,1-2,2A2,2,0,0,1,1587,62Zm180-20a2,2,0,1,1-2,2A2,2,0,0,1,1767,42Zm-20,0a2,2,0,1,1-2,2A2,2,0,0,1,1747,42Zm-20,0a2,2,0,1,1-2,2A2,2,0,0,1,1727,42Zm-20,0a2,2,0,1,1-2,2A2,2,0,0,1,1707,42Zm-20,0a2,2,0,1,1-2,2A2,2,0,0,1,1687,42Zm-20,0a2,2,0,1,1-2,2A2,2,0,0,1,1667,42Zm-20,0a2,2,0,1,1-2,2A2,2,0,0,1,1647,42Zm-20,0a2,2,0,1,1-2,2A2,2,0,0,1,1627,42Zm-20,0a2,2,0,1,1-2,2A2,2,0,0,1,1607,42Zm-20,0a2,2,0,1,1-2,2A2,2,0,0,1,1587,42Zm180-20a2,2,0,1,1-2,2A2,2,0,0,1,1767,22Zm-20,0a2,2,0,1,1-2,2A2,2,0,0,1,1747,22Zm-20,0a2,2,0,1,1-2,2A2,2,0,0,1,1727,22Zm-20,0a2,2,0,1,1-2,2A2,2,0,0,1,1707,22Zm-20,0a2,2,0,1,1-2,2A2,2,0,0,1,1687,22Zm-20,0a2,2,0,1,1-2,2A2,2,0,0,1,1667,22Zm-20,0a2,2,0,1,1-2,2A2,2,0,0,1,1647,22Zm-20,0a2,2,0,1,1-2,2A2,2,0,0,1,1627,22Zm-20,0a2,2,0,1,1-2,2A2,2,0,0,1,1607,22Zm-20,0a2,2,0,1,1-2,2A2,2,0,0,1,1587,22Z" transform="translate(-1585 -22)"/>
</svg>
