<svg xmlns="http://www.w3.org/2000/svg" width="26.969" height="25.969" viewBox="0 0 26.969 25.969">
  <defs>
    <style>
      .cls-1 {
        fill: #fff;
        fill-rule: evenodd;
      }
    </style>
  </defs>
  <path id="dashboard" class="cls-1" d="M75.387,458.22a13.459,13.459,0,0,1,2.091,1.463c2.648,2.567,5.229,5.2,7.832,7.818a5.59,5.59,0,0,1,1.671,4.11c0,2.214.031,4.428,0,6.641a5.461,5.461,0,0,1-5.655,5.7q-7.8.083-15.609,0.027c-3.417-.025-5.636-2.326-5.688-5.786-0.032-2.17-.018-4.341-0.025-6.512a5.818,5.818,0,0,1,1.825-4.312c2.558-2.539,5.093-5.1,7.637-7.656C71.005,458.165,72.843,457.673,75.387,458.22Zm9.5,20.932a2.953,2.953,0,0,0,.118-0.635c0-2.482.081-4.97-.071-7.444a4.056,4.056,0,0,0-1.125-2.306c-2.469-2.593-5.017-5.112-7.579-7.614a3.651,3.651,0,0,0-5.423.016c-2.531,2.477-5.08,4.942-7.483,7.54a5.215,5.215,0,0,0-1.254,2.907,63.56,63.56,0,0,0-.036,6.562,3.643,3.643,0,0,0,3.727,3.815c5.227,0.06,10.455.042,15.682-.009A3.616,3.616,0,0,0,84.891,479.152Z" transform="translate(-60 -458.031)"/>
</svg>
