<svg xmlns="http://www.w3.org/2000/svg" width="46" height="46" viewBox="0 0 46 46">
  <defs>
    <style>
      .cls-1 {
        fill: #fff;
        fill-rule: evenodd;
      }
    </style>
  </defs>
  <path id="icon_03" class="cls-1" d="M1097,458a23.068,23.068,0,0,1-23-23h0a23,23,0,0,1,46,0h0A23.068,23.068,0,0,1,1097,458Zm0-42.933A19.933,19.933,0,1,0,1116.93,435,19.954,19.954,0,0,0,1097,415.067Zm11.17,22.588H1097a1.515,1.515,0,0,1-1.51-1.51V420.054a1.51,1.51,0,0,1,3.02,0v14.582h9.66A1.51,1.51,0,1,1,1108.17,437.655Z" transform="translate(-1074 -412)"/>
</svg>
