<svg xmlns="http://www.w3.org/2000/svg" width="46" height="40" viewBox="0 0 46 40">
  <defs>
    <style>
      .cls-1 {
        fill: #fff;
        fill-rule: evenodd;
      }
    </style>
  </defs>
  <path id="icon_05" class="cls-1" d="M1676.44,432.883a25.33,25.33,0,0,0,3.93.1c4.21,0.016,8.42.091,12.62-.019a3.523,3.523,0,0,0,1.98-1.366,1.78,1.78,0,0,0-.48-0.825,1.575,1.575,0,0,0-1.26-.619c-5.84.013-11.38,0.006-16.91,0.1a1.732,1.732,0,0,0-1.15,1.239A2.04,2.04,0,0,0,1676.44,432.883Zm16.44-6.954c1.06,0,2.27-.156,2.02-1.444-0.1-.573-1.37-1.282-2.14-1.324-2.83-.157-5.67-0.055-8.5-0.058-2.5,0-5.01-.1-7.51.043a2.452,2.452,0,0,0-1.55,1.348c-0.14.289,0.54,0.964,0.75,1.314,0.66,0.059.99,0.115,1.32,0.115Q1685.07,425.932,1692.88,425.929Zm-23.05,10.586a0.862,0.862,0,0,0-.02.384c0.08,0.112.17,0.224,0.26,0.335a1.524,1.524,0,0,0,2.58-.247v-0.02a4.592,4.592,0,0,0,.04-1.742c-0.01-5.393-.02-10.787-0.03-16.381l24.7,0.044c0.02,0.921.06,1.623,0.06,2.325,0.01,5.146-.02,9.4.01,14.549,0,0.98.03,2.138,1.41,2.162s1.47-1.136,1.47-2.116c0.02-5.668.03-10.446-.02-16.114-0.02-2.491-1.13-3.628-3.64-3.647q-11.655-.09-23.32-0.048a3.484,3.484,0,0,0-3.5,3.457C1669.81,425.142,1669.83,430.828,1669.83,436.515Zm38.06,16.142a28.677,28.677,0,0,0-.18-6.612,7.163,7.163,0,0,0-3.8-5.006c-2.64-1.59-5.52-.98-8.31-0.977a3.248,3.248,0,0,0-2.15,1.006c-5.05,5.639-11.95,5.654-16.91.018a3.275,3.275,0,0,0-1.92-1.1,34.316,34.316,0,0,0-5.13.019c-3.61.242-6.3,2.512-7.4,6.753-0.03.957-.13,2.709-0.09,4.459,0.07,3.114,1.68,4.656,4.83,4.678,4.81,0.032,9.62.038,14.42,0.051q10.875,0.029,21.74.048C1705.63,456,1707.72,454.718,1707.89,452.657Zm-7.65.477q-16.29-.054-32.59-0.066l-1.66,0a3,3,0,0,1-1.04-1.26,20.048,20.048,0,0,1,.2-5.426,4.592,4.592,0,0,1,4.47-3.563c2.43-.142,4.58-0.131,6.75,1.965,5.05,4.881,13.25,4.35,18.19-.692,2.25-2.293,4.91-1.408,7.34-.8,2.15,0.541,3.12,2.423,3.25,4.667C1705.45,453.175,1705.47,453.152,1700.24,453.134Z" transform="translate(-1662 -416)"/>
</svg>
