<svg xmlns="http://www.w3.org/2000/svg" width="45" height="45" viewBox="0 0 45 45">
  <defs>
    <style>
      .cls-1 {
        fill: #fff;
        fill-rule: evenodd;
      }
    </style>
  </defs>
  <path id="icon_04" class="cls-1" d="M1387.29,440.179c4.18-4.177,8.14-8.145,12.13-12.082a3.363,3.363,0,0,1,1.66-1.054,1.686,1.686,0,0,1,1.43.821,2.8,2.8,0,0,1-.48,2.134c-2.65,2.8-5.43,5.493-8.16,8.223-1.63,1.629-3.28,3.235-4.88,4.9-1.12,1.163-2.13,1.333-3.32.083-1.68-1.759-3.43-3.448-5.15-5.162-0.79-.793-1.21-1.71-0.32-2.612s1.81-.527,2.61.278C1384.25,437.152,1385.7,438.594,1387.29,440.179ZM1396.28,416A13.74,13.74,0,0,1,1410,429.723v11.554A13.74,13.74,0,0,1,1396.28,455h-11.56A13.74,13.74,0,0,1,1371,441.277V429.723A13.74,13.74,0,0,1,1384.72,416h11.56m0-3h-11.56A16.774,16.774,0,0,0,1368,429.723v11.554A16.775,16.775,0,0,0,1384.72,458h11.56A16.775,16.775,0,0,0,1413,441.277V429.723A16.774,16.774,0,0,0,1396.28,413h0Z" transform="translate(-1368 -413)"/>
</svg>
