<svg xmlns="http://www.w3.org/2000/svg" width="44" height="44" viewBox="0 0 44 44">
  <defs>
    <style>
      .cls-1 {
        fill: #fff;
        fill-rule: evenodd;
      }
    </style>
  </defs>
  <path id="icon_01" class="cls-1" d="M493.821,456.7c-4.011-1.085-6.688-4.176-6.735-8.04-0.11-9.012-.142-18.027,0-27.038a8.517,8.517,0,0,1,8.807-8.571q13.14-.113,26.28-0.014a8.483,8.483,0,0,1,8.662,8.465q0.231,13.517.14,27.037a8.325,8.325,0,0,1-8.128,8.335c-9.171.173-18.346,0.078-27.52,0.07A7.573,7.573,0,0,1,493.821,456.7Zm-3.961-36.313a6.067,6.067,0,0,0-.193,1.183c-0.013,9.009-.081,18.02.032,27.028a5.878,5.878,0,0,0,6.137,5.728q13.135,0.065,26.27-.009c3.677-.024,6.239-2.416,6.26-6.039q0.078-13.41-.142-26.82a5.838,5.838,0,0,0-5.848-5.805q-13.341-.1-26.683-0.006A6.018,6.018,0,0,0,489.86,420.383Zm5.309,26.483a4.236,4.236,0,0,1,0-1.86,2.363,2.363,0,0,1,1.558-1.216c2.889-.114,5.784-0.035,8.678-0.04,5.029-.008,10.058-0.048,15.086-0.026,1.035,0,2.53-.285,2.489,1.367-0.037,1.453-1.365,1.223-2.393,1.224q-11.469.018-22.939,0.044c-0.482,0-.964-0.045-1.446-0.07ZM514.7,433.774c0.2,0.3.912,1.015,0.773,1.277a2.325,2.325,0,0,1-1.586,1.17c-3.713.108-7.43,0.063-11.146,0.07-2,0-4,.116-5.98-0.052-0.589-.05-1.109-0.886-1.661-1.362,0.555-.391,1.105-1.113,1.665-1.122,5.709-.088,11.42-0.061,17.131-0.064C514.03,433.691,514.167,433.718,514.7,433.774Zm-18.652-7.533c-0.251-.345-0.913-0.874-0.83-1.232a1.927,1.927,0,0,1,1.209-1.309q5.166-.157,10.336.009a1.891,1.891,0,0,1,1.21,1.275,1.652,1.652,0,0,1-1.085,1.165C503.372,426.255,499.854,426.228,496.045,426.241Z" transform="translate(-487 -413)"/>
</svg>
