<svg xmlns="http://www.w3.org/2000/svg" width="50" height="44" viewBox="0 0 50 44">
  <defs>
    <style>
      .cls-1 {
        fill: #fff;
        fill-rule: evenodd;
      }
    </style>
  </defs>
  <path id="icon_07" class="cls-1" d="M797.189,773.136c1.009,1.017,2.023,2.029,3.134,3.142,2.932-2.933,5.7-5.719,8.5-8.483a2.364,2.364,0,0,1,1.166-.74,1.188,1.188,0,0,1,1,.577,2,2,0,0,1-.337,1.5c-1.86,1.968-3.8,3.857-5.716,5.774-1.142,1.143-2.3,2.271-3.419,3.438-0.783.817-1.494,0.936-2.328,0.058-1.173-1.235-2.4-2.42-3.6-3.624a1.184,1.184,0,0,1-.225-1.834A1.169,1.169,0,0,1,797.189,773.136Zm30.694-15.343c-0.165,1.866-1.915,3.074-4.212,3.275h0.17c0.146,8.554.185,10.677,0.131,19.491a8.312,8.312,0,0,1-8.128,8.311c-9.171.173-16.346,0.078-25.52,0.07a7.587,7.587,0,0,1-1.5-.243c-4.011-1.082-6.688-4.165-6.735-8.018-0.108-8.855-.141-10.954-0.008-19.611h2.588c-0.014,8.611-.078,10.716.033,19.55a5.871,5.871,0,0,0,6.137,5.711c8.757,0.044,15.513.048,24.27-.008,3.677-.024,6.239-2.41,6.26-6.023,0.051-8.713,0-10.783-.133-19.194-7.472-.022-17.3-0.062-24-0.1-4.807-.025-9.615-0.042-14.423-0.087-3.146-.029-4.758-1.57-4.821-4.673-0.036-1.743.074-3.489,0.1-4.443,1.119-4.223,3.806-6.478,7.417-6.711a34.572,34.572,0,0,1,5.129-.006c-1.637-.139,18.129,0,23.156.08,3.775-.1,8-0.25,10.133,1.039a7.152,7.152,0,0,1,3.79,5A28.423,28.423,0,0,1,827.883,757.793Zm-2.73-4.69c-0.124-2.236-1.091-4.114-3.243-4.658a15.725,15.725,0,0,0-3.841-.7c2.462-.015-23.024.078-31.261,0.1-0.388.006-.779,0.019-1.18,0.042a4.578,4.578,0,0,0-4.469,3.54,20.056,20.056,0,0,0-.221,5.406,3.063,3.063,0,0,0,1.037,1.258l1.661,0.007c10.865,0.047,25.73.083,36.6,0.146C825.461,758.28,825.44,758.3,825.153,753.1Z" transform="translate(-778 -745)"/>
</svg>
