<svg xmlns="http://www.w3.org/2000/svg" width="46" height="46" viewBox="0 0 46 46">
  <defs>
    <style>
      .cls-1 {
        fill: #fff;
        fill-rule: evenodd;
      }
    </style>
  </defs>
  <path id="icon_08" class="cls-1" d="M1098,788a23,23,0,1,1,23-23A23.068,23.068,0,0,1,1098,788Zm0-42.933A19.933,19.933,0,1,0,1117.93,765,19.954,19.954,0,0,0,1098,745.067Zm9.26,29.646a1.52,1.52,0,0,1-2.14,0l-7.12-7.122-7.12,7.122a1.511,1.511,0,1,1-2.14-2.134l7.13-7.122-7.13-7.123a1.511,1.511,0,1,1,2.14-2.134l7.12,7.123,7.12-7.123a1.511,1.511,0,1,1,2.14,2.134l-7.13,7.123,7.13,7.122A1.526,1.526,0,0,1,1107.26,774.713Z" transform="translate(-1075 -742)"/>
</svg>
