<svg xmlns="http://www.w3.org/2000/svg" width="44" height="44" viewBox="0 0 44 44">
  <defs>
    <style>
      .cls-1 {
        fill: #fff;
        fill-rule: evenodd;
      }
    </style>
  </defs>
  <path id="icon_09" class="cls-1" d="M1371.81,787.976c-2.65-.771-3.74-2.107-3.77-4.123-0.07-3.8-.06-7.6.01-11.406a3.885,3.885,0,0,1,3.85-3.891c3.87-.107,7.75-0.121,11.62.009a3.785,3.785,0,0,1,3.92,4c0.08,3.8.06,7.6-.02,11.4-0.03,1.954-1.17,3.565-3.03,3.7C1379.99,788,1375.56,787.909,1371.81,787.976Zm12.14-16.895c-4.31.038-8.18,0.011-12.05,0.188a2.389,2.389,0,0,0-1.17,1.822c-0.13,3.449-.11,6.9-0.09,10.357a1.659,1.659,0,0,0,1.94,1.861c3.39-.052,6.78-0.069,10.16-0.022a1.742,1.742,0,0,0,2.07-1.958c0.02-3.453.08-6.907,0-10.358A5.131,5.131,0,0,0,1383.95,771.081Zm-0.13-27.07c2.48,0.761,3.62,2.038,3.64,4.081,0.05,3.8.07,7.6-.03,11.4a3.825,3.825,0,0,1-3.99,3.924c-3.74.1-7.48,0.119-11.21,0.019-2.69-.072-4.14-1.684-4.17-4.411-0.04-3.524-.03-7.05.01-10.575,0.02-2.26,1.22-4.088,3.23-4.2C1375.64,744,1380,744.066,1383.82,744.011Zm1.07,15.953c-0.03-4.3,0-8.169-.15-12.029a2.094,2.094,0,0,0-1.58-1.2c-3.52-.1-7.05-0.044-10.58-0.033a1.648,1.648,0,0,0-1.88,1.908c0.02,3.453-.01,6.907-0.03,10.361a1.693,1.693,0,0,0,1.93,1.906c3.45,0,6.91.021,10.37-.081A5.666,5.666,0,0,0,1384.89,759.964Zm27.08,24.126c-0.84,2.645-2.15,3.713-4.07,3.757q-5.7.134-11.42,0.031a3.929,3.929,0,0,1-3.98-3.978q-0.135-5.6,0-11.2a3.989,3.989,0,0,1,4.21-4.2c3.73-.084,7.47-0.049,11.2-0.009,1.97,0.021,3.62,1.068,3.76,2.927C1412,775.887,1411.9,780.381,1411.97,784.09Zm-3.64-13.04c-4.25.035-8.06,0-11.85,0.175a2.242,2.242,0,0,0-1.3,1.7c-0.13,3.45-.05,6.906-0.07,10.36a1.7,1.7,0,0,0,2.01,1.974c3.39-.038,6.78-0.012,10.17,0a1.7,1.7,0,0,0,2-1.835c0.02-3.523.05-7.047-.05-10.567A4.782,4.782,0,0,0,1408.33,771.05Zm-12.24-7.612c-2.44-.745-3.51-2.04-3.54-3.97-0.08-3.739-.1-7.484.01-11.222,0.08-2.7,1.66-4.129,4.44-4.182,3.46-.065,6.93-0.091,10.4-0.051,2.93,0.033,4.49,1.595,4.54,4.511,0.05,3.463.07,6.928,0.02,10.391-0.05,2.9-1.64,4.454-4.58,4.5C1403.43,763.464,1399.48,763.433,1396.09,763.438Zm12.36-16.812c-4.26.022-8.07-.023-11.87,0.137a2.251,2.251,0,0,0-1.38,1.662c-0.12,3.521-.13,7.052.04,10.568a2.5,2.5,0,0,0,1.66,1.769c3.52,0.153,7.06.134,10.58-.047a2.5,2.5,0,0,0,1.77-1.667c0.17-3.517.12-7.047,0.03-10.568A5.1,5.1,0,0,0,1408.45,746.626Z" transform="translate(-1368 -744)"/>
</svg>
