<svg xmlns="http://www.w3.org/2000/svg" width="44" height="46" viewBox="0 0 44 46">
  <defs>
    <style>
      .cls-1 {
        fill: #fff;
        fill-rule: evenodd;
      }
    </style>
  </defs>
  <path id="icon_02" class="cls-1" d="M799.112,440.859a14.17,14.17,0,1,1,17.222-10.008A14.086,14.086,0,0,1,799.112,440.859Zm0.715-2.783a11.275,11.275,0,1,0-7.979-13.7A11.174,11.174,0,0,0,799.827,438.076Zm11.015,6.743A24.169,24.169,0,0,1,824.3,456c0.534,0.911,1.3,1.959-.078,2.748-1.362.778-1.853-.417-2.416-1.317-9.287-14.84-28.852-14.771-38.308.088-0.407.64-1.482,0.85-2.246,1.261-0.048-.927-0.458-2.044-0.089-2.751C786.2,446.374,798.373,441.405,810.842,444.819Z" transform="translate(-781 -413)"/>
</svg>
