<svg xmlns="http://www.w3.org/2000/svg" width="46" height="40" viewBox="0 0 46 40">
  <defs>
    <style>
      .cls-1 {
        fill: #fff;
        fill-rule: evenodd;
      }
    </style>
  </defs>
  <path id="icon_10" class="cls-1" d="M1686.99,762.66a2.454,2.454,0,0,1-1.44,2.962,2.144,2.144,0,0,1-2.63-1.683,2.378,2.378,0,0,1,1.39-2.842A2.106,2.106,0,0,1,1686.99,762.66Zm8.73,2.493a2.338,2.338,0,0,1-1.48,2.9,1.962,1.962,0,0,1-2.5-1.581,2.259,2.259,0,0,1,1.37-2.957A2.044,2.044,0,0,1,1695.72,765.153Zm-18.89,2.826a2.026,2.026,0,0,1-2.63-1.634,2.2,2.2,0,0,1,1.42-2.784,2.026,2.026,0,0,1,2.64,1.616A2.317,2.317,0,0,1,1676.83,767.979Zm16.95-19.96c6.34,0,11.5,5.73,11.5,12.773v8.415c0,7.043-5.16,12.773-11.5,12.773h-29.06V760.792c0-7.043,5.16-12.773,11.5-12.773h17.56m0-3.019h-17.56c-7.82,0-14.22,7.106-14.22,15.792V785h31.78c7.82,0,14.22-7.107,14.22-15.793v-8.415c0-8.686-6.4-15.792-14.22-15.792h0Z" transform="translate(-1662 -745)"/>
</svg>
