<svg xmlns="http://www.w3.org/2000/svg" width="48" height="39" viewBox="0 0 48 39">
  <defs>
    <style>
      .cls-1 {
        fill: #fff;
        fill-rule: evenodd;
      }
    </style>
  </defs>
  <path id="icon_06" class="cls-1" d="M520.039,784.644c-0.881.069-1.762,0.2-2.644,0.2-6.83.013-13.66,0.045-20.49-.013-5.824-.05-9.8-4.026-9.871-9.908q-0.111-9.542,0-19.085a9.462,9.462,0,0,1,9.777-9.785c6.83-.052,13.662.008,20.493-0.012a9.588,9.588,0,0,1,8.353,4.409c2.635,3.789,5.327,7.538,7.965,11.325,1.8,2.582,1.818,4.758.063,7.279-2.718,3.9-5.34,7.892-8.272,11.627-1.34,1.707-3.321,2.9-5.012,4.321Zm-0.778-3.138,0.3,0.321a24.7,24.7,0,0,0,3.55-3.222c2.733-3.634,5.245-7.438,7.918-11.12a3.11,3.11,0,0,0-.041-4.136q-3.948-5.432-7.755-10.967a6.915,6.915,0,0,0-6.068-3.231c-6.694.012-13.388-.021-20.082,0.012-4.31.021-6.948,2.65-6.975,6.983q-0.057,9.438.022,18.878c0.034,3.876,2.6,6.626,6.4,6.681,7.034,0.1,14.07.044,21.105,0.034A11.318,11.318,0,0,0,519.261,781.506Z" transform="translate(-487 -746)"/>
</svg>
