<svg xmlns="http://www.w3.org/2000/svg" width="30" height="30" viewBox="0 0 30 30">
  <defs>
    <style>
      .cls-1 {
        fill: #fff;
        fill-rule: evenodd;
      }
    </style>
  </defs>
  <path id="settings" class="cls-1" d="M87.663,631.1c-0.564-.085-1.144-0.166-1.722-0.241a0.171,0.171,0,0,1-.145-0.121,12.2,12.2,0,0,0-1.15-2.777,0.171,0.171,0,0,1,.016-0.189c0.356-.462.708-0.929,1.047-1.388a1.582,1.582,0,0,0-.155-2.046l-1.9-1.9a1.582,1.582,0,0,0-2.046-.155c-0.458.339-.925,0.692-1.388,1.048a0.172,0.172,0,0,1-.189.016,12.171,12.171,0,0,0-2.777-1.151,0.169,0.169,0,0,1-.121-0.144c-0.075-.579-0.156-1.158-0.241-1.722A1.582,1.582,0,0,0,75.341,619H72.659a1.581,1.581,0,0,0-1.556,1.337c-0.084.564-.165,1.143-0.241,1.722a0.17,0.17,0,0,1-.121.144,12.166,12.166,0,0,0-2.776,1.151,0.172,0.172,0,0,1-.189-0.016c-0.463-.356-0.93-0.709-1.388-1.048a1.582,1.582,0,0,0-2.046.155l-1.9,1.9a1.581,1.581,0,0,0-.155,2.046c0.34,0.46.693,0.927,1.047,1.388a0.172,0.172,0,0,1,.016.189,12.187,12.187,0,0,0-1.151,2.777,0.17,0.17,0,0,1-.145.121c-0.578.075-1.157,0.156-1.721,0.241A1.581,1.581,0,0,0,59,632.659v2.682a1.581,1.581,0,0,0,1.337,1.556c0.565,0.084,1.144.165,1.721,0.241a0.169,0.169,0,0,1,.145.121,12.192,12.192,0,0,0,1.151,2.777,0.17,0.17,0,0,1-.016.188c-0.356.463-.708,0.93-1.047,1.388a1.581,1.581,0,0,0,.155,2.046l1.9,1.9a1.583,1.583,0,0,0,2.046.155c0.458-.339.925-0.692,1.388-1.048a0.172,0.172,0,0,1,.189-0.016,12.164,12.164,0,0,0,2.776,1.151,0.168,0.168,0,0,1,.121.144c0.076,0.579.157,1.158,0.241,1.721A1.581,1.581,0,0,0,72.659,649h2.682a1.581,1.581,0,0,0,1.556-1.338c0.084-.563.165-1.143,0.241-1.721a0.171,0.171,0,0,1,.121-0.145,12.168,12.168,0,0,0,2.777-1.15,0.172,0.172,0,0,1,.189.016c0.463,0.356.93,0.708,1.388,1.047a1.582,1.582,0,0,0,2.046-.154l1.9-1.9a1.581,1.581,0,0,0,.155-2.046c-0.34-.459-0.692-0.926-1.047-1.388a0.171,0.171,0,0,1-.016-0.189,12.157,12.157,0,0,0,1.151-2.776,0.172,0.172,0,0,1,.145-0.122c0.578-.075,1.157-0.156,1.721-0.24A1.581,1.581,0,0,0,89,635.341v-2.682A1.581,1.581,0,0,0,87.663,631.1ZM87.6,635.341a0.173,0.173,0,0,1-.144.171c-0.556.083-1.126,0.162-1.7,0.237a1.568,1.568,0,0,0-1.314,1.138,10.8,10.8,0,0,1-1.018,2.457,1.569,1.569,0,0,0,.124,1.735c0.35,0.455.7,0.915,1.031,1.367a0.172,0.172,0,0,1-.019.222l-1.9,1.9a0.17,0.17,0,0,1-.222.019c-0.451-.333-0.911-0.68-1.367-1.031a1.569,1.569,0,0,0-1.735-.124,10.8,10.8,0,0,1-2.457,1.018,1.569,1.569,0,0,0-1.138,1.314c-0.074.57-.154,1.14-0.237,1.7a0.171,0.171,0,0,1-.171.144H72.659a0.171,0.171,0,0,1-.171-0.144c-0.083-.554-0.163-1.125-0.237-1.7a1.569,1.569,0,0,0-1.138-1.314,10.794,10.794,0,0,1-2.457-1.018,1.566,1.566,0,0,0-1.735.124c-0.456.351-.916,0.7-1.367,1.032a0.172,0.172,0,0,1-.222-0.019l-1.9-1.9a0.171,0.171,0,0,1-.019-0.222c0.334-.452.681-0.912,1.032-1.367a1.569,1.569,0,0,0,.124-1.735,10.789,10.789,0,0,1-1.018-2.457,1.568,1.568,0,0,0-1.314-1.138c-0.569-.074-1.139-0.154-1.7-0.237a0.173,0.173,0,0,1-.144-0.171v-2.682a0.171,0.171,0,0,1,.144-0.17c0.556-.084,1.126-0.163,1.7-0.238a1.567,1.567,0,0,0,1.314-1.137,10.768,10.768,0,0,1,1.018-2.458,1.569,1.569,0,0,0-.124-1.735c-0.35-.454-0.7-0.914-1.032-1.367a0.172,0.172,0,0,1,.019-0.222l1.9-1.9a0.172,0.172,0,0,1,.222-0.019c0.451,0.333.911,0.68,1.367,1.031a1.567,1.567,0,0,0,1.735.124,10.791,10.791,0,0,1,2.457-1.018,1.569,1.569,0,0,0,1.138-1.314c0.074-.57.154-1.141,0.237-1.7a0.172,0.172,0,0,1,.171-0.144h2.682a0.172,0.172,0,0,1,.171.144c0.083,0.554.163,1.125,0.237,1.7a1.569,1.569,0,0,0,1.138,1.314,10.8,10.8,0,0,1,2.457,1.018,1.569,1.569,0,0,0,1.735-.124c0.456-.351.916-0.7,1.367-1.031a0.171,0.171,0,0,1,.222.019l1.9,1.9a0.172,0.172,0,0,1,.019.222c-0.334.452-.681,0.912-1.031,1.367a1.569,1.569,0,0,0-.124,1.735,10.8,10.8,0,0,1,1.018,2.458,1.567,1.567,0,0,0,1.314,1.137c0.569,0.075,1.14.154,1.7,0.238a0.171,0.171,0,0,1,.144.17v2.682h0ZM74,627.488A6.512,6.512,0,1,0,80.512,634,6.519,6.519,0,0,0,74,627.488Zm0,11.623A5.111,5.111,0,1,1,79.111,634,5.117,5.117,0,0,1,74,639.111Z" transform="translate(-59 -619)"/>
</svg>
